<svg xmlns="http://www.w3.org/2000/svg" enable-background="new 0 0 66 66" viewBox="0 0 66 66"><path d="M59.8,21.7c-15.3,4.6-6.4,15.5-5.1,28.4c0,0,0.1,0,0.1-0.1C61,43.9,65,35.7,65,32.9C65,30.9,63.1,26.4,59.8,21.7z
		 M57.2,32.9c-0.5-0.5-0.5-1.3,0-1.8c0.5-0.5,1.3-0.5,1.8,0c0.5,0.5,0.5,1.3,0,1.8C58.4,33.5,57.6,33.4,57.2,32.9z"/><path d="M58.6,20.1c-1.2-1.5-2.4-3-3.8-4.4c-3.5-3.5-7.7-5.1-12.4-4.9c-12.1,0.4-24.3,12.8-28.7,17.7c-1.3-1.7-4.2-5.2-5.4-7.1
		c-0.2-0.2-0.4-0.4-0.7-0.4c-0.3,0-0.6,0-0.8,0.2C-0.9,27.7-1,38,6.9,44.7C7.1,44.9,7.4,45,7.6,45c0.3,0,0.5-0.2,0.7-0.4
		c1.2-1.9,4.1-5.5,5.4-7.2C26.8,51.8,36.5,55,42.3,55.2c3.3,0.2,7.2-0.9,10.6-3.5C52.3,39.4,41.8,25.6,58.6,20.1z"/></svg>